{"title":"Fish.Tank.LiMiTED.DVDRip.XviD-ALLiANCE","uid":5297501,"size":1477291896,"categoryP":"video","categoryS":"movies","magnet":"?xt=urn:btih:54a4b8ba9fd73e2d6c4f0b9d9b5a52f34d5b95e6&amp;dn=Fish.Tank.LiMiTED.DVDRip.XviD-ALLiANCE&amp;tr=udp%3A%2F%2Ftracker.openbittorrent.com%3A80&amp;tr=udp%3A%2F%2Fopen.demonii.com%3A1337&amp;tr=udp%3A%2F%2Ftracker.coppersurfer.tk%3A6969&amp;tr=udp%3A%2F%2Fexodus.desync.com%3A6969","seeders":3,"leechers":0,"uploader":"IwannaFan2","files":2,"time":1264105856,"description":"Format                           : AVI\nFormat/Info                      : Audio Video Interleave\nFile size                        : 1.37 GiB\nDuration                         : 1h 57mn\nOverall bit rate                 : 1 663 Kbps\nWriting application              : Nandub v1.0rc2\nWriting library                  : Boilsoft AVI tool build 1/release\n\nVideo\nID                               : 0\nFormat                           : MPEG-4 Visual\nFormat profile                   : AdvancedSimple@L5\nFormat settings, BVOP            : Yes\nFormat settings, QPel            : No\nFormat settings, GMC             : No warppoints\nFormat settings, Matrix          : Default (MPEG)\nCodec ID                         : XVID\nCodec ID/Hint                    : XviD\nDuration                         : 1h 57mn\nBit rate                         : 1 206 Kbps\nWidth                            : 640 pixels\nHeight                           : 480 pixels\nDisplay aspect ratio             : 4:3\nFrame rate                       : 25.000 fps\nResolution                       : 24 bits\nColorimetry                      : 4:2:0\nScan type                        : Progressive\nBits/(Pixel*Frame)               : 0.157\nStream size                      : 1 014 MiB (72%)\nWriting library                  : XviD 1.2.1 (UTC 2008-12-04)\n\nAudio\nID                               : 1\nFormat                           : AC-3\nFormat/Info                      : Audio Coding 3\nCodec ID                         : 2000\nDuration                         : 1h 57mn\nBit rate mode                    : Constant\nBit rate                         : 448 Kbps\nChannel(s)                       : 6 channels\nChannel positions                : Front: L C R, Surround: L R, LFE\nSampling rate                    : 48.0 KHz\nStream size                      : 377 MiB (27%)\nAlignment                        : Split accross interleaves\nInterleave, duration             : 40 ms (1.00 video frame)\nInterleave, preload duration     : 500 ms\n","torrent":{"xt":"urn:btih:54a4b8ba9fd73e2d6c4f0b9d9b5a52f34d5b95e6","amp;dn":"Fish.Tank.LiMiTED.DVDRip.XviD-ALLiANCE","amp;tr":["udp%3A%2F%2Ftracker.openbittorrent.com%3A80","udp%3A%2F%2Fopen.demonii.com%3A1337","udp%3A%2F%2Ftracker.coppersurfer.tk%3A6969","udp%3A%2F%2Fexodus.desync.com%3A6969"],"infoHash":"54a4b8ba9fd73e2d6c4f0b9d9b5a52f34d5b95e6","infoHashBuffer":{"type":"Buffer","data":[84,164,184,186,159,215,62,45,108,79,11,157,155,90,82,243,77,91,149,230]},"announce":[],"urlList":[]}}